<?xml version="1.0" encoding="UTF-8"?>
<svg width="72px" height="72px" viewBox="0 0 72 72" version="1.1" xmlns="http://www.w3.org/2000/svg" xmlns:xlink="http://www.w3.org/1999/xlink">
    <!-- Generator: Sketch 47.1 (45422) - http://www.bohemiancoding.com/sketch -->
    <title>Success-Icon</title>
    <desc>Created with Sketch.</desc>
    <defs></defs>
    <g id="Page-1" stroke="none" stroke-width="1" fill="none" fill-rule="evenodd">
        <g id="First-Login" transform="translate(-693.000000, -250.000000)" fill-rule="nonzero" fill="#339871">
            <g id="Success-Icon" transform="translate(693.000000, 250.000000)">
                <path d="M36,0 C16.1501538,0 0,16.1487692 0,36 C0,55.8512308 16.1501538,72 36,72 C55.8498462,72 72,55.8512308 72,36 C72,16.1487692 55.8498462,0 36,0 Z M36,69.2307692 C17.6773846,69.2307692 2.76923077,54.3226154 2.76923077,36 C2.76923077,17.6773846 17.6773846,2.76923077 36,2.76923077 C54.3226154,2.76923077 69.2307692,17.6773846 69.2307692,36 C69.2307692,54.3226154 54.3226154,69.2307692 36,69.2307692 Z" id="Shape"></path>
                <path d="M52.9643077,22.6190769 L31.6841538,46.5590769 L18.864,36.3032308 C18.2686154,35.8255385 17.3949231,35.9238462 16.9186154,36.5192308 C16.4409231,37.1173846 16.5378462,37.9883077 17.1346154,38.466 L30.9807692,49.5429231 C31.2355385,49.7464615 31.5415385,49.8461538 31.8461538,49.8461538 C32.2283077,49.8461538 32.6090769,49.6883077 32.8818462,49.3809231 L55.0356923,24.4578462 C55.5438462,23.8873846 55.4926154,23.0109231 54.9207692,22.5041538 C54.3475385,21.9946154 53.4738462,22.0458462 52.9643077,22.6190769 Z" id="Shape"></path>
            </g>
        </g>
    </g>
</svg>