<?xml version="1.0" encoding="UTF-8" standalone="no"?>
<svg
   xmlns:dc="http://purl.org/dc/elements/1.1/"
   xmlns:cc="http://creativecommons.org/ns#"
   xmlns:rdf="http://www.w3.org/1999/02/22-rdf-syntax-ns#"
   xmlns:svg="http://www.w3.org/2000/svg"
   xmlns="http://www.w3.org/2000/svg"
   xmlns:sodipodi="http://sodipodi.sourceforge.net/DTD/sodipodi-0.dtd"
   xmlns:inkscape="http://www.inkscape.org/namespaces/inkscape"
   width="188"
   height="140"
   viewBox="0 0 188 140"
   version="1.1"
   id="svg4"
   sodipodi:docname="white-logo.svg"
   inkscape:version="0.92.1 r15371">
  <metadata
     id="metadata10">
    <rdf:RDF>
      <cc:Work
         rdf:about="">
        <dc:format>image/svg+xml</dc:format>
        <dc:type
           rdf:resource="http://purl.org/dc/dcmitype/StillImage" />
        <dc:title></dc:title>
      </cc:Work>
    </rdf:RDF>
  </metadata>
  <defs
     id="defs8" />
  <sodipodi:namedview
     pagecolor="#ffffff"
     bordercolor="#666666"
     borderopacity="1"
     objecttolerance="10"
     gridtolerance="10"
     guidetolerance="10"
     inkscape:pageopacity="0"
     inkscape:pageshadow="2"
     inkscape:window-width="1237"
     inkscape:window-height="842"
     id="namedview6"
     showgrid="true"
     inkscape:zoom="1.6857143"
     inkscape:cx="55.440678"
     inkscape:cy="70"
     inkscape:window-x="0"
     inkscape:window-y="0"
     inkscape:window-maximized="0"
     inkscape:current-layer="svg4">
    <inkscape:grid
       type="xygrid"
       id="grid4487" />
  </sodipodi:namedview>
  <path
     fill="#3EB989"
     fill-rule="evenodd"
     d="M145.196 88.474h-11.68l-6.853 24.436-6.787-24.436h-14.11l13.703 36.926h13.979l12.827-34.389 14.187 33.372-.679 1.29c-.769 1.582-2.103 2.375-4.003 2.375-.904 0-1.741-.16-2.51-.475-.77-.318-1.585-.861-2.443-1.63l-5.698 9.164c1.853 1.402 3.73 2.431 5.63 3.088 1.9.656 3.98.985 6.243.985 3.709 0 6.83-.872 9.363-2.613 2.533-1.742 4.522-4.425 5.972-8.044l15.468-40.05H174.17l-6.854 22.605-8.074-22.605h-14.045zM13.458 21.124c7.434 0 13.459 8.873 13.459 8.873s-6.025 8.876-13.459 8.876C6.026 38.873 0 29.997 0 29.997s6.026-8.873 13.458-8.873zm25.597-7.66c0 7.437-8.87 13.464-8.87 13.464s-8.87-6.027-8.87-13.464C21.315 6.028 30.185 0 30.185 0s8.87 6.028 8.87 13.464zm4.218 25.9c-.701.633-1.052 1.493-1.052 2.58v1.764h7.667v8.757h-7.667v26.269h-13.57v-26.27h-5.02v-8.756h5.02v-3.394c0-3.846 1.335-6.9 4.003-9.165 2.67-2.261 6.175-3.392 10.517-3.392 2.76 0 5.541.452 8.346 1.357l-1.493 10.182c-1.764-.588-3.076-.882-3.935-.882-1.178 0-2.115.316-2.816.95zm40.302 5.464c2.918 2.376 4.375 5.692 4.375 9.944v23.961H74.518v-4.072c-1.131 1.493-2.613 2.647-4.445 3.462-1.832.814-3.948 1.221-6.344 1.221-3.891 0-6.943-1.052-9.16-3.156-2.216-2.104-3.324-4.921-3.324-8.45 0-3.576 1.209-6.324 3.63-8.248 2.419-1.923 5.96-2.908 10.619-2.953h9.024v-.136c0-1.538-.543-2.737-1.629-3.597-1.085-.859-2.669-1.29-4.75-1.29-1.492 0-3.222.226-5.19.679a34.59 34.59 0 0 0-5.937 1.968l-3.394-9.095c6.243-2.535 12.17-3.802 17.778-3.802 5.2 0 9.26 1.188 12.18 3.564zm-11.5 24.538c1.13-.677 1.944-1.606 2.443-2.783v-3.326h-6.243c-2.76 0-4.138 1.154-4.138 3.462 0 1.178.361 2.083 1.084 2.715.723.634 1.741.95 3.054.95 1.401 0 2.668-.339 3.8-1.018zm38.942-26.439c1.969-1.107 4.195-1.663 6.685-1.663v12.355c-.543-.092-1.336-.137-2.375-.137-2.851 0-5.102.679-6.753 2.036-1.65 1.358-2.475 3.215-2.475 5.567v17.648H92.392V41.807H106.1v5.838c1.31-2.037 2.95-3.608 4.918-4.718zm67.8.068c1.99 1.154 3.529 2.795 4.616 4.92 1.084 2.13 1.627 4.595 1.627 7.401v23.417h-13.706V59.252c0-1.81-.464-3.259-1.39-4.343-.928-1.088-2.16-1.63-3.699-1.63-1.764.046-3.166.725-4.205 2.037-1.043 1.312-1.562 3.03-1.562 5.157v18.26h-13.705V59.252c0-1.81-.464-3.259-1.391-4.343-.928-1.088-2.16-1.63-3.698-1.63-1.764.046-3.178.725-4.24 2.037-1.064 1.312-1.595 3.03-1.595 5.157v18.26h-13.706V41.807h13.706v5.635c1.266-1.992 2.87-3.52 4.817-4.583 1.944-1.062 4.161-1.595 6.65-1.595 2.849 0 5.337.702 7.463 2.105 2.126 1.403 3.686 3.37 4.681 5.904 1.176-2.579 2.839-4.557 4.989-5.939 2.147-1.379 4.646-2.07 7.496-2.07 2.58 0 4.862.578 6.853 1.73zm-121.38 50.4c3.392 3.598 5.088 8.52 5.088 14.764 0 .95-.023 1.653-.068 2.104H37.624c.543 1.765 1.436 3.123 2.68 4.073 1.243.95 2.748 1.425 4.512 1.425 2.85 0 5.562-1.175 8.142-3.528l7.124 6.99c-1.945 2.172-4.308 3.825-7.09 4.955-2.782 1.133-5.893 1.697-9.33 1.697-4.07 0-7.598-.78-10.584-2.342-2.985-1.56-5.28-3.756-6.886-6.584-1.608-2.828-2.41-6.12-2.41-9.876 0-3.801.815-7.139 2.443-10.012 1.629-2.872 3.912-5.101 6.853-6.686 2.939-1.584 6.333-2.376 10.178-2.376 6.06 0 10.788 1.799 14.18 5.396zm-9.975 5.668c-1.04-1.176-2.397-1.765-4.07-1.765-1.585 0-2.897.566-3.936 1.697-1.04 1.132-1.741 2.648-2.103 4.548h11.602c.045-1.809-.454-3.302-1.493-4.48zm50.863-9.402c2.013 1.154 3.573 2.796 4.683 4.921 1.107 2.129 1.66 4.595 1.66 7.4V125.4H90.964v-19.48c0-1.81-.486-3.259-1.457-4.344-.974-1.087-2.252-1.63-3.834-1.63-1.856.047-3.326.725-4.41 2.038-1.087 1.312-1.63 3.03-1.63 5.157v18.26H65.927V88.472h13.705v5.702c1.312-2.035 2.952-3.586 4.92-4.65 1.967-1.062 4.24-1.595 6.818-1.595 2.624 0 4.942.579 6.955 1.731z"
     id="path2"
     style="fill:#ffffff;fill-opacity:1" />
</svg>
